<svg id="svg" version="1.1" width="400" height="400" xmlns="http://www.w3.org/2000/svg" xmlns:xlink="http://www.w3.org/1999/xlink" style="display: block;"><g id="svgg"><path id="path0" d="M280.400 3.153 C 280.400 3.348,280.040 3.601,279.600 3.716 C 279.160 3.831,278.800 4.212,278.800 4.563 C 278.800 4.913,278.620 5.200,278.400 5.200 C 278.180 5.200,278.000 5.819,278.000 6.576 C 278.000 7.333,277.820 8.064,277.600 8.200 C 277.380 8.336,277.200 8.966,277.200 9.600 C 277.200 10.234,277.020 10.864,276.800 11.000 C 276.580 11.136,276.400 11.856,276.400 12.600 C 276.400 13.344,276.220 14.064,276.000 14.200 C 275.780 14.336,275.600 15.067,275.600 15.824 C 275.600 16.581,275.420 17.200,275.200 17.200 C 274.980 17.200,274.800 17.920,274.800 18.800 C 274.800 19.680,274.620 20.400,274.400 20.400 C 274.180 20.400,274.000 20.760,274.000 21.200 C 274.000 21.640,273.864 22.000,273.698 22.000 C 273.531 22.000,273.156 22.540,272.864 23.200 C 272.572 23.860,272.112 24.400,271.842 24.400 C 271.572 24.400,270.964 24.760,270.492 25.200 C 268.515 27.042,266.037 26.275,262.408 22.700 C 260.776 21.092,259.762 20.400,259.037 20.400 C 258.467 20.400,258.000 20.220,258.000 20.000 C 258.000 19.778,256.933 19.600,255.600 19.600 C 254.267 19.600,253.200 19.778,253.200 20.000 C 253.200 20.220,252.795 20.406,252.300 20.413 C 250.182 20.443,248.887 23.784,250.800 24.284 C 251.240 24.399,251.600 24.652,251.600 24.847 C 251.600 25.041,251.825 25.200,252.100 25.201 C 252.375 25.201,253.230 25.741,254.000 26.400 C 254.770 27.059,255.548 27.599,255.729 27.599 C 256.282 27.601,257.200 28.706,257.200 29.371 C 257.200 29.717,257.380 30.000,257.600 30.000 C 257.820 30.000,258.000 30.900,258.000 32.000 C 258.000 33.100,258.180 34.000,258.400 34.000 C 258.620 34.000,258.800 34.360,258.800 34.800 C 258.800 35.240,258.980 35.600,259.200 35.600 C 259.420 35.600,259.600 35.888,259.600 36.240 C 259.600 36.591,260.140 37.383,260.800 38.000 C 261.460 38.617,262.000 39.297,262.000 39.512 C 262.000 39.727,262.720 40.645,263.600 41.552 C 264.480 42.459,265.200 43.471,265.200 43.800 C 265.200 44.130,265.380 44.400,265.600 44.400 C 265.829 44.400,266.000 45.600,266.000 47.200 C 266.000 48.800,265.829 50.000,265.600 50.000 C 265.380 50.000,265.200 50.540,265.200 51.200 C 265.200 51.860,265.020 52.400,264.800 52.400 C 264.580 52.400,264.400 52.749,264.400 53.176 C 264.400 53.603,264.220 54.064,264.000 54.200 C 263.780 54.336,263.600 54.887,263.600 55.424 C 263.600 55.961,263.420 56.400,263.200 56.400 C 262.980 56.400,262.800 56.839,262.800 57.376 C 262.800 57.913,262.620 58.464,262.400 58.600 C 262.180 58.736,262.000 59.197,262.000 59.624 C 262.000 60.051,261.820 60.400,261.600 60.400 C 261.380 60.400,261.200 60.940,261.200 61.600 C 261.200 62.260,261.020 62.800,260.800 62.800 C 260.580 62.800,260.400 63.149,260.400 63.576 C 260.400 64.003,260.220 64.464,260.000 64.600 C 259.780 64.736,259.600 65.287,259.600 65.824 C 259.600 66.361,259.420 66.800,259.200 66.800 C 258.980 66.800,258.800 67.340,258.800 68.000 C 258.800 68.660,258.620 69.200,258.400 69.200 C 258.180 69.200,258.000 69.445,258.000 69.744 C 258.000 70.196,256.828 72.812,255.154 76.095 C 254.959 76.477,254.800 77.062,254.800 77.395 C 254.800 77.728,254.620 78.000,254.400 78.000 C 254.180 78.000,254.000 78.360,254.000 78.800 C 254.000 79.240,253.820 79.600,253.600 79.600 C 253.380 79.600,253.200 79.960,253.200 80.400 C 253.200 80.840,253.020 81.200,252.800 81.200 C 252.580 81.200,252.400 81.549,252.400 81.976 C 252.400 82.403,252.220 82.864,252.000 83.000 C 251.780 83.136,251.600 83.687,251.600 84.224 C 251.600 84.761,251.420 85.200,251.200 85.200 C 250.980 85.200,250.800 85.560,250.800 86.000 C 250.800 86.440,250.620 86.800,250.400 86.800 C 250.180 86.800,250.000 87.149,250.000 87.576 C 250.000 88.003,249.820 88.464,249.600 88.600 C 249.380 88.736,249.200 89.287,249.200 89.824 C 249.200 90.361,249.020 90.800,248.800 90.800 C 248.580 90.800,248.400 91.160,248.400 91.600 C 248.400 92.040,248.220 92.400,248.000 92.400 C 247.780 92.400,247.600 92.839,247.600 93.376 C 247.600 93.913,247.420 94.464,247.200 94.600 C 246.980 94.736,246.800 95.197,246.800 95.624 C 246.800 96.051,246.620 96.400,246.400 96.400 C 246.180 96.400,246.000 96.749,246.000 97.176 C 246.000 97.603,245.820 98.064,245.600 98.200 C 245.380 98.336,245.200 98.887,245.200 99.424 C 245.200 99.961,245.020 100.400,244.800 100.400 C 244.580 100.400,244.400 100.760,244.400 101.200 C 244.400 101.640,244.220 102.000,244.000 102.000 C 243.780 102.000,243.600 102.272,243.600 102.605 C 243.600 102.938,243.420 103.568,243.200 104.005 C 242.980 104.442,242.620 105.158,242.400 105.595 C 242.180 106.032,242.000 106.579,242.000 106.811 C 242.000 107.043,241.640 107.620,241.200 108.092 C 240.760 108.564,240.400 109.187,240.400 109.475 C 240.400 109.764,240.220 110.000,240.000 110.000 C 239.780 110.000,239.600 110.278,239.600 110.617 C 239.600 110.956,239.240 111.620,238.800 112.092 C 238.360 112.564,238.000 113.187,238.000 113.475 C 238.000 113.764,237.820 114.000,237.600 114.000 C 237.380 114.000,237.200 114.360,237.200 114.800 C 237.200 115.240,237.050 115.600,236.868 115.600 C 236.685 115.600,236.280 116.093,235.968 116.695 C 235.321 117.943,232.205 121.200,231.659 121.200 C 231.459 121.200,230.555 121.920,229.648 122.800 C 228.741 123.680,227.729 124.400,227.400 124.400 C 227.070 124.400,226.800 124.580,226.800 124.800 C 226.800 125.020,226.260 125.200,225.600 125.200 C 224.940 125.200,224.400 125.380,224.400 125.600 C 224.400 125.820,224.040 126.000,223.600 126.000 C 223.160 126.000,222.800 126.180,222.800 126.400 C 222.800 126.620,222.440 126.800,222.000 126.800 C 221.560 126.800,221.200 126.980,221.200 127.200 C 221.200 127.420,220.923 127.600,220.583 127.600 C 220.244 127.600,218.039 129.535,215.683 131.900 C 210.522 137.081,206.800 139.312,206.800 137.224 C 206.800 136.797,206.620 136.336,206.400 136.200 C 206.180 136.064,206.000 135.333,206.000 134.576 C 206.000 133.819,205.820 133.200,205.600 133.200 C 205.380 133.200,205.200 132.581,205.200 131.824 C 205.200 131.067,205.020 130.336,204.800 130.200 C 203.588 129.451,204.794 125.831,206.881 123.953 C 207.704 123.213,207.991 111.889,207.200 111.400 C 206.980 111.264,206.800 109.993,206.800 108.576 C 206.800 107.125,206.625 106.000,206.400 106.000 C 206.180 106.000,206.000 105.280,206.000 104.400 C 206.000 103.520,205.820 102.800,205.600 102.800 C 205.380 102.800,205.200 102.440,205.200 102.000 C 205.200 101.560,205.065 101.199,204.900 101.197 C 204.541 101.193,203.600 99.256,203.600 98.520 C 203.600 98.234,203.420 98.000,203.200 98.000 C 202.980 98.000,202.800 97.460,202.800 96.800 C 202.800 96.140,202.620 95.600,202.400 95.600 C 202.180 95.600,202.000 95.058,202.000 94.395 C 202.000 93.732,201.820 92.832,201.600 92.395 C 201.380 91.958,201.020 91.242,200.800 90.805 C 200.580 90.368,200.400 89.663,200.400 89.239 C 200.400 88.814,200.265 88.407,200.100 88.333 C 199.935 88.260,199.296 87.525,198.680 86.700 C 198.063 85.875,197.375 85.200,197.149 85.200 C 196.638 85.200,191.600 80.048,191.600 79.525 C 191.600 79.057,190.580 78.000,190.129 78.000 C 189.588 77.999,187.600 76.144,187.600 75.640 C 187.600 74.649,184.850 72.400,183.637 72.400 C 182.304 72.400,181.680 73.040,182.355 73.715 C 183.205 74.565,182.787 74.800,180.424 74.800 C 179.117 74.800,177.936 74.980,177.800 75.200 C 177.478 75.721,175.600 75.721,175.600 75.200 C 175.600 74.612,172.316 74.737,171.500 75.357 C 170.748 75.928,170.541 77.200,171.200 77.200 C 171.420 77.200,171.597 77.335,171.593 77.500 C 171.583 77.934,167.920 79.600,166.976 79.600 C 166.536 79.600,165.917 79.960,165.600 80.400 C 165.006 81.224,162.800 81.539,162.800 80.800 C 162.800 80.580,162.246 80.400,161.570 80.400 C 160.452 80.400,160.351 80.506,160.461 81.556 C 160.674 83.588,159.072 86.000,157.509 86.000 C 156.452 86.000,155.600 86.673,155.600 87.509 C 155.600 88.168,154.632 89.200,154.014 89.200 C 153.028 89.200,151.600 90.528,151.600 91.446 C 151.600 91.971,151.780 92.400,152.000 92.400 C 152.220 92.400,152.400 92.940,152.400 93.600 C 152.400 94.260,152.264 94.800,152.098 94.800 C 151.931 94.800,151.560 95.385,151.271 96.100 C 150.983 96.815,150.579 97.713,150.374 98.095 C 150.168 98.477,150.000 99.332,150.000 99.995 C 150.000 100.658,149.861 101.200,149.691 101.200 C 149.371 101.200,148.400 104.896,148.400 106.112 C 148.400 106.490,148.580 106.800,148.800 106.800 C 149.539 106.800,149.224 109.006,148.400 109.600 C 147.419 110.307,147.291 112.400,148.229 112.400 C 149.103 112.400,150.000 113.386,150.000 114.348 C 150.000 114.791,150.180 115.264,150.400 115.400 C 150.620 115.536,150.800 116.156,150.800 116.777 C 150.800 117.570,151.038 117.969,151.600 118.116 C 152.040 118.231,152.400 118.612,152.400 118.963 C 152.400 119.313,152.580 119.600,152.800 119.600 C 153.020 119.600,153.200 119.894,153.200 120.253 C 153.200 120.612,153.524 121.197,153.919 121.553 C 154.314 121.909,155.072 122.830,155.602 123.600 C 156.681 125.167,160.813 129.200,161.339 129.200 C 161.526 129.200,162.156 129.702,162.740 130.315 C 163.323 130.929,164.430 131.872,165.200 132.410 C 167.465 133.994,170.000 136.717,170.000 137.566 C 170.000 137.999,170.180 138.464,170.400 138.600 C 170.620 138.736,170.800 139.996,170.800 141.400 C 170.800 142.804,170.980 144.064,171.200 144.200 C 171.420 144.336,171.600 145.697,171.600 147.224 L 171.600 150.000 169.200 150.000 C 167.324 150.000,166.800 150.132,166.800 150.605 C 166.800 151.815,162.282 157.200,161.268 157.200 C 161.076 157.200,160.394 157.695,159.752 158.300 C 159.111 158.905,158.094 159.655,157.493 159.968 C 156.884 160.284,156.400 160.872,156.400 161.296 C 156.400 162.383,155.970 162.719,150.400 165.987 C 134.682 175.209,132.187 178.703,124.642 202.053 C 120.596 214.575,120.784 213.058,122.950 215.718 C 125.800 219.216,126.081 220.325,125.221 224.680 C 125.013 225.736,124.467 229.030,124.008 232.000 C 123.549 234.970,122.901 239.110,122.569 241.200 C 122.238 243.290,121.700 246.710,121.376 248.800 C 120.338 255.485,119.980 257.256,118.169 264.655 C 115.096 277.204,115.066 277.562,115.062 300.800 C 115.059 317.430,115.192 322.731,115.751 328.306 C 116.964 340.395,117.367 341.679,121.502 346.637 L 123.807 349.400 129.003 351.099 C 137.536 353.889,137.882 353.835,136.533 349.925 C 135.826 347.876,135.694 347.748,132.827 346.353 C 127.993 344.001,126.400 341.301,126.400 335.462 C 126.400 329.759,128.145 329.205,132.031 333.673 C 136.911 339.284,139.159 338.066,135.457 331.817 C 134.278 329.828,132.914 326.850,132.424 325.200 C 131.311 321.443,129.941 319.046,128.378 318.123 C 126.374 316.939,126.435 316.551,131.328 299.495 C 136.536 281.343,137.356 277.514,138.755 264.800 C 139.288 259.953,139.706 257.760,140.326 256.544 C 141.900 253.459,144.304 247.029,146.584 239.800 C 149.623 230.167,149.480 230.490,150.839 230.191 C 151.615 230.021,152.080 229.620,152.240 228.985 C 152.888 226.400,154.138 227.056,154.554 230.200 C 158.555 260.424,158.446 276.748,153.973 317.000 C 153.533 320.960,153.001 325.820,152.790 327.800 C 152.579 329.780,152.229 332.930,152.011 334.800 C 149.115 359.651,146.644 393.188,147.474 396.361 C 147.693 397.200,147.695 397.200,169.147 397.190 L 190.600 397.181 192.579 390.890 C 199.544 368.754,201.907 362.400,203.175 362.400 C 204.602 362.400,209.182 377.112,212.795 393.300 L 213.666 397.200 236.236 397.200 L 258.807 397.200 258.607 395.100 C 258.497 393.945,258.222 390.120,257.994 386.600 C 256.540 364.086,254.955 345.157,253.373 331.400 C 251.990 319.379,251.758 317.492,250.818 310.646 C 249.727 302.705,249.618 303.352,252.100 303.032 C 257.192 302.375,257.615 302.041,256.828 299.297 C 253.806 288.761,251.136 266.156,249.990 241.400 C 248.516 209.562,251.578 161.200,255.068 161.200 C 255.422 161.200,255.600 160.665,255.600 159.600 C 255.600 158.720,255.780 158.000,256.000 158.000 C 256.220 158.000,256.400 157.460,256.400 156.800 C 256.400 156.140,256.580 155.600,256.800 155.600 C 257.020 155.600,257.200 155.251,257.200 154.824 C 257.200 154.397,257.380 153.936,257.600 153.800 C 257.820 153.664,258.000 153.124,258.000 152.600 C 258.000 152.076,258.180 151.536,258.400 151.400 C 258.620 151.264,258.800 150.713,258.800 150.176 C 258.800 149.639,258.980 149.200,259.200 149.200 C 259.420 149.200,259.600 148.660,259.600 148.000 C 259.600 147.340,259.780 146.800,260.000 146.800 C 260.220 146.800,260.400 146.271,260.400 145.624 C 260.400 144.977,260.580 144.336,260.800 144.200 C 261.020 144.064,261.200 143.434,261.200 142.800 C 261.200 142.166,261.380 141.536,261.600 141.400 C 261.820 141.264,262.000 140.623,262.000 139.976 C 262.000 139.329,262.180 138.800,262.400 138.800 C 262.620 138.800,262.800 138.080,262.800 137.200 C 262.800 136.320,262.980 135.600,263.200 135.600 C 263.420 135.600,263.600 134.891,263.600 134.024 C 263.600 133.157,263.780 132.336,264.000 132.200 C 264.220 132.064,264.400 131.074,264.400 130.000 C 264.400 128.926,264.580 127.936,264.800 127.800 C 265.023 127.662,265.200 125.804,265.200 123.600 C 265.200 121.396,265.377 119.538,265.600 119.400 C 265.820 119.264,266.000 118.533,266.000 117.776 C 266.000 117.019,266.180 116.400,266.400 116.400 C 266.620 116.400,266.800 115.680,266.800 114.800 C 266.800 113.920,266.980 113.200,267.200 113.200 C 267.420 113.200,267.600 112.480,267.600 111.600 C 267.600 110.720,267.780 110.000,268.000 110.000 C 268.220 110.000,268.400 109.460,268.400 108.800 C 268.400 108.140,268.580 107.600,268.800 107.600 C 269.020 107.600,269.200 107.161,269.200 106.624 C 269.200 106.087,269.380 105.536,269.600 105.400 C 269.820 105.264,270.000 104.803,270.000 104.376 C 270.000 103.949,270.180 103.600,270.400 103.600 C 270.620 103.600,270.800 103.060,270.800 102.400 C 270.800 101.740,270.980 101.200,271.200 101.200 C 271.420 101.200,271.600 100.838,271.600 100.395 C 271.600 99.952,271.780 99.232,272.000 98.795 C 272.220 98.358,272.580 97.642,272.800 97.205 C 273.020 96.768,273.200 96.059,273.200 95.629 C 273.200 95.199,273.380 94.736,273.600 94.600 C 273.820 94.464,274.000 93.924,274.000 93.400 C 274.000 92.876,274.180 92.336,274.400 92.200 C 274.620 92.064,274.800 91.524,274.800 91.000 C 274.800 90.476,274.980 89.936,275.200 89.800 C 275.420 89.664,275.600 89.034,275.600 88.400 C 275.600 87.766,275.780 87.136,276.000 87.000 C 276.220 86.864,276.400 86.223,276.400 85.576 C 276.400 84.929,276.580 84.400,276.800 84.400 C 277.020 84.400,277.200 83.781,277.200 83.024 C 277.200 82.267,277.380 81.536,277.600 81.400 C 277.820 81.264,278.000 80.634,278.000 80.000 C 278.000 79.366,278.180 78.736,278.400 78.600 C 278.620 78.464,278.800 77.654,278.800 76.800 C 278.800 75.946,278.980 75.136,279.200 75.000 C 279.420 74.864,279.600 74.054,279.600 73.200 C 279.600 72.346,279.780 71.536,280.000 71.400 C 280.220 71.264,280.400 70.353,280.400 69.376 C 280.400 68.399,280.580 67.600,280.800 67.600 C 281.020 67.600,281.200 66.711,281.200 65.624 C 281.200 64.537,281.380 63.536,281.600 63.400 C 281.820 63.264,282.000 62.364,282.000 61.400 C 282.000 60.436,282.180 59.536,282.400 59.400 C 282.620 59.264,282.800 58.724,282.800 58.200 C 282.800 57.676,282.980 57.136,283.200 57.000 C 283.420 56.864,283.600 56.324,283.600 55.800 C 283.600 55.276,283.780 54.736,284.000 54.600 C 284.220 54.464,284.400 53.924,284.400 53.400 C 284.400 52.876,284.580 52.336,284.800 52.200 C 285.020 52.064,285.200 51.604,285.200 51.178 C 285.200 50.753,286.100 49.485,287.200 48.361 C 288.300 47.238,289.200 46.150,289.200 45.943 C 289.200 45.736,289.560 45.180,290.000 44.708 C 290.440 44.236,290.800 43.613,290.800 43.325 C 290.800 43.036,290.980 42.800,291.200 42.800 C 291.420 42.800,291.600 42.440,291.600 42.000 C 291.600 41.560,291.780 41.200,292.000 41.200 C 292.220 41.200,292.400 40.924,292.400 40.587 C 292.400 39.791,294.991 37.200,295.787 37.200 C 296.124 37.200,296.400 37.020,296.400 36.800 C 296.400 36.580,296.760 36.400,297.200 36.400 C 297.640 36.400,298.000 36.220,298.000 36.000 C 298.000 35.780,298.799 35.600,299.776 35.600 C 300.753 35.600,301.664 35.420,301.800 35.200 C 301.936 34.980,302.926 34.800,304.000 34.800 C 305.074 34.800,306.064 34.620,306.200 34.400 C 306.336 34.180,307.165 34.000,308.042 34.000 C 309.201 34.000,309.904 33.732,310.618 33.018 C 312.282 31.355,311.624 29.200,309.452 29.200 C 308.899 29.200,308.336 29.020,308.200 28.800 C 308.064 28.580,307.164 28.400,306.200 28.400 C 305.236 28.400,304.336 28.580,304.200 28.800 C 303.949 29.206,297.200 29.382,297.200 28.982 C 297.200 28.570,299.164 26.800,299.621 26.800 C 299.873 26.800,300.583 26.260,301.200 25.600 C 301.817 24.940,302.537 24.400,302.800 24.400 C 303.063 24.400,303.783 23.860,304.400 23.200 C 305.017 22.540,305.739 22.000,306.007 22.000 C 306.274 22.000,307.101 21.335,307.846 20.522 C 310.571 17.547,309.192 12.707,306.095 14.374 C 305.713 14.579,304.815 14.983,304.100 15.271 C 303.385 15.560,302.800 15.931,302.800 16.098 C 302.800 16.264,302.564 16.400,302.275 16.400 C 301.987 16.400,301.364 16.760,300.892 17.200 C 300.420 17.640,299.891 18.000,299.717 18.001 C 299.543 18.001,298.770 18.541,298.000 19.200 C 297.230 19.859,296.375 20.399,296.100 20.399 C 295.825 20.400,295.599 20.535,295.597 20.700 C 295.593 21.082,293.523 22.057,293.265 21.798 C 293.159 21.692,293.461 21.268,293.936 20.856 C 294.411 20.443,294.800 19.852,294.800 19.541 C 294.800 19.231,295.160 18.717,295.600 18.400 C 296.040 18.083,296.400 17.638,296.401 17.412 C 296.401 17.185,296.941 16.370,297.600 15.600 C 298.259 14.830,298.799 14.015,298.799 13.788 C 298.800 13.562,299.160 13.117,299.600 12.800 C 300.040 12.483,300.400 11.903,300.400 11.512 C 300.400 11.120,300.580 10.800,300.800 10.800 C 301.020 10.800,301.200 10.361,301.200 9.824 C 301.200 9.287,301.380 8.736,301.600 8.600 C 302.210 8.223,302.077 6.490,301.354 5.386 C 300.695 4.381,298.000 3.910,298.000 4.800 C 298.000 5.020,297.785 5.200,297.522 5.200 C 296.959 5.200,294.800 7.188,294.800 7.706 C 294.800 7.902,294.080 8.754,293.200 9.600 C 292.320 10.446,291.600 11.300,291.600 11.498 C 291.600 11.696,290.700 12.822,289.600 14.000 C 288.500 15.178,287.600 16.304,287.600 16.502 C 287.600 17.100,284.358 20.022,283.965 19.778 C 283.470 19.472,283.499 16.109,284.000 15.800 C 284.220 15.664,284.400 14.404,284.400 13.000 C 284.400 11.596,284.580 10.336,284.800 10.200 C 285.020 10.064,285.200 8.883,285.200 7.576 C 285.200 6.259,285.022 5.200,284.800 5.200 C 284.580 5.200,284.400 4.840,284.400 4.400 C 284.400 3.867,284.133 3.600,283.600 3.600 C 283.160 3.600,282.800 3.420,282.800 3.200 C 282.800 2.980,282.260 2.800,281.600 2.800 C 280.940 2.800,280.400 2.959,280.400 3.153 " stroke="none" fill="#050708" fill-rule="evenodd"></path><path id="path1" d="M155.463 161.781 C 155.212 162.435,153.957 163.272,148.200 166.628 C 135.543 174.005,131.402 179.531,125.933 196.342 C 124.814 199.784,123.201 204.697,122.349 207.259 C 120.393 213.142,120.401 213.479,122.550 216.118 C 125.490 219.727,125.473 219.637,124.402 226.000 C 124.198 227.210,123.835 229.460,123.595 231.000 C 122.980 234.953,122.398 238.638,121.986 241.200 C 121.791 242.410,121.437 244.660,121.200 246.200 C 119.912 254.563,119.278 257.816,117.732 264.000 C 114.731 275.999,114.410 279.735,114.404 302.737 C 114.396 333.655,115.614 341.049,121.850 347.936 C 123.341 349.583,124.377 350.342,125.650 350.720 C 126.612 351.005,129.156 351.782,131.303 352.446 C 137.243 354.283,138.405 353.763,137.167 349.821 C 136.460 347.570,135.956 347.083,132.864 345.658 C 128.457 343.626,126.614 340.439,126.883 335.317 C 127.137 330.460,128.546 330.107,131.631 334.126 C 133.304 336.304,135.214 337.600,136.752 337.600 C 138.998 337.600,138.695 336.007,135.428 330.625 C 134.423 328.969,133.600 327.385,133.600 327.105 C 133.600 324.759,130.915 319.583,128.649 317.563 L 127.038 316.125 127.667 314.163 C 129.050 309.851,136.765 282.059,137.151 280.000 C 138.242 274.176,138.901 269.514,139.632 262.424 C 139.939 259.454,140.341 257.700,141.026 256.348 C 142.949 252.555,145.688 244.954,148.864 234.600 C 149.761 231.678,149.974 231.339,151.323 230.697 C 152.274 230.244,152.800 229.718,152.800 229.220 C 152.800 228.050,153.482 227.874,153.758 228.973 C 153.891 229.505,154.192 231.619,154.426 233.670 C 154.660 235.722,155.020 238.885,155.226 240.700 C 155.432 242.515,155.797 245.575,156.038 247.500 C 156.721 252.960,156.960 274.012,156.435 282.400 C 155.843 291.853,154.825 304.021,153.983 311.700 C 153.328 317.679,152.845 322.055,152.414 325.900 C 152.186 327.935,151.820 331.220,151.600 333.200 C 151.380 335.180,151.023 338.375,150.807 340.300 C 150.591 342.225,150.222 345.690,149.988 348.000 C 149.753 350.310,149.395 353.820,149.191 355.800 C 148.822 359.399,148.345 365.213,147.614 375.000 C 146.885 384.775,146.653 397.200,147.200 397.200 C 147.504 397.200,147.609 396.878,147.474 396.361 C 146.644 393.188,149.115 359.651,152.011 334.800 C 152.229 332.930,152.579 329.780,152.790 327.800 C 153.001 325.820,153.533 320.960,153.973 317.000 C 158.446 276.748,158.555 260.424,154.554 230.200 C 154.138 227.056,152.888 226.400,152.240 228.985 C 152.080 229.620,151.615 230.021,150.839 230.191 C 149.480 230.490,149.623 230.167,146.584 239.800 C 144.304 247.029,141.900 253.459,140.326 256.544 C 139.706 257.760,139.288 259.953,138.755 264.800 C 137.356 277.514,136.536 281.343,131.328 299.495 C 126.435 316.551,126.374 316.939,128.378 318.123 C 129.941 319.046,131.311 321.443,132.424 325.200 C 132.914 326.850,134.278 329.828,135.457 331.817 C 139.159 338.066,136.911 339.284,132.031 333.673 C 128.145 329.205,126.400 329.759,126.400 335.462 C 126.400 341.301,127.993 344.001,132.827 346.353 C 135.694 347.748,135.826 347.876,136.533 349.925 C 137.882 353.835,137.536 353.889,129.003 351.099 L 123.807 349.400 121.502 346.637 C 117.367 341.679,116.964 340.395,115.751 328.306 C 115.192 322.731,115.059 317.430,115.062 300.800 C 115.066 277.562,115.096 277.204,118.169 264.655 C 119.980 257.256,120.338 255.485,121.376 248.800 C 121.700 246.710,122.238 243.290,122.569 241.200 C 122.901 239.110,123.549 234.970,124.008 232.000 C 124.467 229.030,125.013 225.736,125.221 224.680 C 126.081 220.325,125.800 219.216,122.950 215.718 C 120.784 213.058,120.596 214.575,124.642 202.053 C 132.187 178.703,134.682 175.209,150.400 165.987 C 155.580 162.948,156.400 162.353,156.400 161.629 C 156.400 160.997,155.721 161.107,155.463 161.781 M254.085 162.101 C 252.869 164.535,251.116 180.276,250.198 197.000 C 248.265 232.215,251.382 280.309,256.828 299.297 C 257.615 302.041,257.192 302.375,252.100 303.032 C 249.618 303.352,249.727 302.705,250.818 310.646 C 251.758 317.492,251.990 319.379,253.373 331.400 C 254.373 340.092,255.545 352.717,256.400 364.000 C 257.415 377.404,257.581 379.765,258.028 387.200 C 258.287 391.490,258.655 395.540,258.847 396.200 C 259.315 397.806,259.032 392.381,257.618 372.600 C 255.961 349.429,254.290 332.337,252.025 315.400 C 251.119 308.624,250.702 305.346,250.653 304.619 C 250.608 303.953,251.022 303.766,253.466 303.352 C 256.299 302.870,258.009 302.241,257.990 301.686 C 257.985 301.529,257.793 300.680,257.564 299.800 C 254.961 289.815,252.915 275.763,251.624 259.000 C 250.591 245.600,250.399 239.614,250.399 220.859 C 250.400 202.012,250.580 196.576,251.619 184.000 C 252.245 176.418,253.417 167.295,254.211 163.811 C 254.808 161.193,254.773 160.724,254.085 162.101 M201.219 365.281 C 199.197 369.803,190.625 396.076,190.901 396.904 C 191.050 397.351,193.313 390.756,195.604 383.200 C 198.824 372.577,202.184 363.605,203.050 363.317 C 203.653 363.116,207.181 373.044,208.979 380.000 C 210.651 386.472,211.225 388.857,212.033 392.700 C 212.553 395.175,213.119 397.200,213.289 397.200 C 214.235 397.200,208.484 374.932,205.361 366.500 C 203.476 361.412,203.010 361.274,201.219 365.281 " stroke="none" fill="#6d5014" fill-rule="evenodd"></path><path id="path2" d="" stroke="none" fill="#ff0000" fill-rule="evenodd"></path><path id="path3" d="" stroke="none" fill="#ff5500" fill-rule="evenodd"></path><path id="path4" d="M108.600 161.600 C 108.464 161.820,107.463 162.000,106.376 162.000 C 105.289 162.000,104.400 162.180,104.400 162.400 C 104.400 162.620,103.860 162.800,103.200 162.800 C 102.540 162.800,102.000 162.980,102.000 163.200 C 102.000 163.420,101.728 163.600,101.395 163.600 C 101.062 163.600,100.477 163.760,100.095 163.956 C 99.713 164.152,98.545 164.720,97.500 165.219 C 96.455 165.718,95.600 166.277,95.600 166.463 C 95.600 166.648,95.343 166.800,95.029 166.800 C 93.700 166.800,85.200 176.116,85.200 177.572 C 85.200 177.807,85.020 178.000,84.800 178.000 C 84.580 178.000,84.400 178.360,84.400 178.800 C 84.400 179.240,84.220 179.600,84.000 179.600 C 83.780 179.600,83.600 179.949,83.600 180.376 C 83.600 180.803,83.420 181.264,83.200 181.400 C 82.980 181.536,82.800 182.076,82.800 182.600 C 82.800 183.124,82.620 183.664,82.400 183.800 C 82.180 183.936,82.000 184.566,82.000 185.200 C 82.000 185.834,81.820 186.464,81.600 186.600 C 81.046 186.943,81.046 371.857,81.600 372.200 C 81.820 372.336,82.000 373.157,82.000 374.024 C 82.000 374.891,82.180 375.600,82.400 375.600 C 82.620 375.600,82.800 376.039,82.800 376.576 C 82.800 377.113,82.980 377.664,83.200 377.800 C 83.420 377.936,83.600 378.397,83.600 378.824 C 83.600 379.251,83.780 379.600,84.000 379.600 C 84.220 379.600,84.400 379.836,84.400 380.125 C 84.400 380.413,84.760 381.036,85.200 381.508 C 85.640 381.980,86.000 382.604,86.000 382.895 C 86.000 383.186,86.360 383.683,86.800 384.000 C 87.240 384.317,87.600 384.784,87.600 385.036 C 87.600 385.669,92.780 390.800,93.419 390.800 C 93.702 390.800,93.993 390.942,94.067 391.114 C 94.432 391.976,99.294 394.800,100.412 394.800 C 100.845 394.800,101.200 394.980,101.200 395.200 C 101.200 395.420,101.549 395.600,101.976 395.600 C 102.403 395.600,102.864 395.780,103.000 396.000 C 103.136 396.220,103.867 396.400,104.624 396.400 C 105.381 396.400,106.000 396.580,106.000 396.800 C 106.000 397.061,113.051 397.200,126.353 397.200 L 146.707 397.200 146.967 388.700 C 147.110 384.025,147.401 377.860,147.614 375.000 C 148.324 365.494,148.824 359.442,149.234 355.400 C 150.027 347.576,150.426 343.754,150.811 340.300 C 151.025 338.375,151.380 335.180,151.600 333.200 C 151.820 331.220,152.186 327.935,152.414 325.900 C 154.346 308.650,154.559 306.530,155.583 294.400 C 156.933 278.405,157.147 256.365,156.038 247.500 C 155.797 245.575,155.432 242.515,155.226 240.700 C 155.020 238.885,154.660 235.722,154.426 233.670 C 154.192 231.619,153.891 229.505,153.758 228.973 C 153.482 227.874,152.800 228.050,152.800 229.220 C 152.800 229.718,152.274 230.244,151.323 230.697 C 149.974 231.339,149.761 231.678,148.864 234.600 C 145.688 244.954,142.949 252.555,141.026 256.348 C 140.341 257.700,139.939 259.454,139.632 262.424 C 138.901 269.514,138.242 274.176,137.151 280.000 C 136.765 282.059,129.050 309.851,127.667 314.163 L 127.038 316.125 128.649 317.563 C 130.915 319.583,133.600 324.759,133.600 327.105 C 133.600 327.385,134.423 328.969,135.428 330.625 C 138.695 336.007,138.998 337.600,136.752 337.600 C 135.214 337.600,133.304 336.304,131.631 334.126 C 128.546 330.107,127.137 330.460,126.883 335.317 C 126.614 340.439,128.457 343.626,132.864 345.658 C 135.956 347.083,136.460 347.570,137.167 349.821 C 138.405 353.763,137.243 354.283,131.303 352.446 C 129.156 351.782,126.612 351.005,125.650 350.720 C 120.653 349.236,116.621 341.943,115.633 332.600 C 114.605 322.866,114.400 317.900,114.404 302.737 C 114.410 279.735,114.731 275.999,117.732 264.000 C 119.274 257.833,119.865 254.803,121.205 246.200 C 121.820 242.247,122.402 238.562,122.814 236.000 C 123.009 234.790,123.363 232.540,123.600 231.000 C 123.837 229.460,124.198 227.210,124.402 226.000 C 125.473 219.637,125.490 219.727,122.550 216.118 C 120.401 213.479,120.393 213.142,122.349 207.259 C 123.201 204.697,124.814 199.784,125.933 196.342 C 131.442 179.409,135.452 174.085,148.382 166.538 C 153.606 163.489,155.600 162.126,155.600 161.604 C 155.600 161.049,108.943 161.045,108.600 161.600 M254.369 162.900 C 253.488 166.138,252.059 177.821,251.152 189.200 C 250.507 197.284,250.236 237.039,250.762 246.200 C 252.136 270.098,254.331 287.397,257.564 299.800 C 257.793 300.680,257.985 301.529,257.990 301.686 C 258.009 302.241,256.299 302.870,253.466 303.352 C 251.022 303.766,250.608 303.953,250.653 304.619 C 250.702 305.346,251.119 308.624,252.025 315.400 C 253.090 323.362,254.469 335.426,255.225 343.400 C 256.478 356.613,257.146 365.307,259.041 393.100 L 259.321 397.200 275.237 397.200 C 285.416 397.200,291.242 397.056,291.400 396.800 C 291.536 396.580,292.357 396.400,293.224 396.400 C 294.091 396.400,294.800 396.220,294.800 396.000 C 294.800 395.780,295.072 395.600,295.405 395.600 C 295.993 395.600,296.418 395.433,298.295 394.462 C 298.787 394.208,299.379 394.000,299.611 394.000 C 299.843 394.000,300.420 393.640,300.892 393.200 C 301.364 392.760,301.987 392.400,302.275 392.400 C 302.564 392.400,302.800 392.220,302.800 392.000 C 302.800 391.780,303.030 391.600,303.312 391.600 C 303.962 391.600,308.721 387.050,310.006 385.200 C 310.541 384.430,311.298 383.451,311.689 383.025 C 312.080 382.598,312.400 382.013,312.400 381.725 C 312.400 381.436,312.580 381.200,312.800 381.200 C 313.020 381.200,313.200 380.947,313.200 380.638 C 313.200 380.153,313.752 378.880,315.250 375.905 C 315.443 375.523,315.600 374.758,315.600 374.205 C 315.600 373.652,315.780 373.200,316.000 373.200 C 316.224 373.200,316.400 372.093,316.400 370.680 C 316.400 369.294,316.581 367.979,316.802 367.758 C 317.263 367.297,317.077 192.567,316.611 188.600 C 316.456 187.280,316.165 186.029,315.965 185.820 C 315.764 185.611,315.600 184.846,315.600 184.120 C 315.600 183.394,315.420 182.800,315.200 182.800 C 314.980 182.800,314.800 182.465,314.800 182.056 C 314.800 181.144,312.395 176.400,311.933 176.400 C 311.750 176.400,311.600 176.112,311.600 175.760 C 311.600 175.409,311.060 174.617,310.400 174.000 C 309.740 173.383,309.200 172.704,309.200 172.490 C 309.200 171.777,303.356 166.820,302.500 166.807 C 302.225 166.803,302.000 166.648,302.000 166.463 C 302.000 166.277,301.145 165.692,300.100 165.163 C 299.055 164.633,298.140 164.065,298.067 163.900 C 297.993 163.735,297.419 163.600,296.790 163.600 C 296.162 163.600,295.536 163.420,295.400 163.200 C 295.264 162.980,294.724 162.800,294.200 162.800 C 293.676 162.800,293.136 162.620,293.000 162.400 C 292.864 162.180,291.953 162.000,290.976 162.000 C 289.999 162.000,289.200 161.820,289.200 161.600 C 289.200 161.340,283.205 161.200,272.015 161.200 L 254.831 161.200 254.369 162.900 M202.439 363.928 C 201.152 366.332,198.200 374.661,195.608 383.200 C 194.907 385.510,193.629 389.526,192.767 392.124 C 191.905 394.722,191.200 396.927,191.200 397.024 C 191.200 397.121,196.060 397.200,202.000 397.200 C 211.079 397.200,212.800 397.109,212.800 396.630 C 212.800 395.704,210.078 383.690,209.167 380.600 C 206.856 372.754,206.129 370.442,204.921 367.100 C 203.479 363.111,203.121 362.653,202.439 363.928 " stroke="none" fill="#fcb626" fill-rule="evenodd"></path></g></svg>